<svg height='100px' width='100px'  fill="#000000" xmlns="http://www.w3.org/2000/svg" xmlns:xlink="http://www.w3.org/1999/xlink" xml:space="preserve" version="1.1" style="shape-rendering:geometricPrecision;text-rendering:geometricPrecision;image-rendering:optimizeQuality;" viewBox="0 0 313 522" x="0px" y="0px" fill-rule="evenodd" clip-rule="evenodd"><defs><style type="text/css">
   
    .fil0 {fill:#000000}
   
  </style></defs><g><path class="fil0" d="M49 0l216 0c26,0 48,22 48,49l0 424c0,27 -22,49 -48,49l-216 0c-27,0 -49,-22 -49,-49l0 -424c0,-27 22,-49 49,-49zm86 495c-3,0 -7,-3 -7,-7 0,-4 4,-7 7,-7l43 0c4,0 7,3 7,7 0,4 -3,7 -7,7l-43 0zm-112 -427l267 0 0 386 -267 0 0 -386z"></path></g></svg>