<svg height='100px' width='100px'  fill="#000000" xmlns="http://www.w3.org/2000/svg" xmlns:xlink="http://www.w3.org/1999/xlink" version="1.1" x="0px" y="0px" viewBox="0 0 32 32" style="enable-background:new 0 0 32 32;" xml:space="preserve"><title>data collection, database</title><path d="M28,2H4C2.3,2,1,3.3,1,5v2c0,1.7,1.3,3,3,3h24c1.7,0,3-1.3,3-3V5C31,3.3,29.7,2,28,2z M7,7.5C6.2,7.5,5.5,6.8,5.5,6  S6.2,4.5,7,4.5S8.5,5.2,8.5,6S7.8,7.5,7,7.5z M25,7H11c-0.6,0-1-0.4-1-1s0.4-1,1-1h14c0.6,0,1,0.4,1,1S25.6,7,25,7z M28,12H4  c-1.7,0-3,1.3-3,3v2c0,1.7,1.3,3,3,3h24c1.7,0,3-1.3,3-3v-2C31,13.3,29.7,12,28,12z M7,17.5c-0.8,0-1.5-0.7-1.5-1.5  c0-0.8,0.7-1.5,1.5-1.5s1.5,0.7,1.5,1.5C8.5,16.8,7.8,17.5,7,17.5z M25,17H11c-0.6,0-1-0.4-1-1c0-0.6,0.4-1,1-1h14c0.6,0,1,0.4,1,1  C26,16.6,25.6,17,25,17z M28,22H4c-1.7,0-3,1.3-3,3v2c0,1.7,1.3,3,3,3h24c1.7,0,3-1.3,3-3v-2C31,23.3,29.7,22,28,22z M7,27.5  c-0.8,0-1.5-0.7-1.5-1.5s0.7-1.5,1.5-1.5s1.5,0.7,1.5,1.5S7.8,27.5,7,27.5z M25,27H11c-0.6,0-1-0.4-1-1s0.4-1,1-1h14  c0.6,0,1,0.4,1,1S25.6,27,25,27z"></path></svg>