<svg height='100px' width='100px'  fill="#000000" xmlns="http://www.w3.org/2000/svg" xmlns:xlink="http://www.w3.org/1999/xlink" version="1.1" x="0px" y="0px" viewBox="0 0 16 16" style="enable-background:new 0 0 16 16;" xml:space="preserve"><style type="text/css">
	.st0{fill-rule:evenodd;clip-rule:evenodd;fill:#000000;}
	.st1{fill:#000000;}
</style><g><path class="st1" d="M15,4v11H5.5C5.22,15,5,14.78,5,14.5S5.22,14,5.5,14H13c0.55,0,1-0.45,1-1V3c0-0.55-0.45-1-1-1v11H3.5   C3.22,13,3,12.78,3,12.5S3.22,12,3.5,12H11c0.55,0,1-0.45,1-1V1c0-0.55-0.45-1-1-1H1C0.45,0,0,0.45,0,1v11   c0,0.26,0.1,0.51,0.29,0.71l3,3C3.49,15.9,3.74,16,4,16h11c0.55,0,1-0.45,1-1V5C16,4.45,15.55,4,15,4z M8,6H4V5h4V6z M2,2h8v2H2V2z   "></path></g></svg>