<svg height='100px' width='100px'  fill="#000000" xmlns="http://www.w3.org/2000/svg" xmlns:xlink="http://www.w3.org/1999/xlink" version="1.1" x="0px" y="0px" viewBox="0 0 24 24" enable-background="new 0 0 24 24" xml:space="preserve"><g><path fill="#000000" d="M21,2H3C2.4,2,2,2.4,2,3v14c0,0.6,0.4,1,1,1h6v2H7v2h10v-2h-2v-2h6c0.6,0,1-0.4,1-1V3C22,2.4,21.6,2,21,2z    M20,16H4V4h16V16z"></path><path fill="#000000" d="M14.5,11.1c-0.4,0-0.8,0.2-1.1,0.4L11,10.3c0-0.1,0-0.1,0-0.2c0-0.1,0-0.2,0-0.2l2.5-1.4   c0.3,0.2,0.6,0.4,1,0.4C15.3,9,16,8.3,16,7.5C16,6.7,15.3,6,14.5,6S13,6.7,13,7.5c0,0.1,0,0.2,0,0.2l-2.5,1.4   c-0.3-0.2-0.6-0.4-1-0.4C8.7,8.7,8,9.4,8,10.2s0.7,1.5,1.5,1.5c0.4,0,0.8-0.2,1.1-0.4l2.5,1.2c0,0.1,0,0.1,0,0.2   c0,0.8,0.7,1.5,1.5,1.5s1.5-0.7,1.5-1.5C16,11.7,15.3,11.1,14.5,11.1z"></path></g></svg>